<mxfile host="app.diagrams.net" modified="2022-12-05T07:03:05.331Z" agent="5.0 (Macintosh; Intel Mac OS X 10_15_7) AppleWebKit/537.36 (KHTML, like Gecko) Chrome/107.0.0.0 Safari/537.36" version="20.6.0" etag="SUY1af4Q9wQY992uqWu6" type="github">
  <diagram id="495byHaHKJhJfysf5SSw" name="第 1 页">
    <mxGraphModel dx="1000" dy="-501" grid="1" gridSize="10" guides="1" tooltips="1" connect="1" arrows="1" fold="1" page="1" pageScale="1" pageWidth="827" pageHeight="1169" math="0" shadow="0">
      <root>
        <mxCell id="0" />
        <mxCell id="1" parent="0" />
        <mxCell id="HYNNua3p2kZ_3nR679I1-1" value="" style="rounded=0;html=1;jettySize=auto;orthogonalLoop=1;fontSize=11;endArrow=block;endFill=0;endSize=8;strokeWidth=1;shadow=0;labelBackgroundColor=none;edgeStyle=orthogonalEdgeStyle;arcSize=16;" edge="1" parent="1" source="HYNNua3p2kZ_3nR679I1-2" target="HYNNua3p2kZ_3nR679I1-7">
          <mxGeometry relative="1" as="geometry" />
        </mxCell>
        <mxCell id="HYNNua3p2kZ_3nR679I1-2" value="提交纹理的过程&lt;br&gt;handleSave" style="rounded=1;whiteSpace=wrap;html=1;fontSize=12;glass=0;strokeWidth=1;shadow=0;arcSize=16;" vertex="1" parent="1">
          <mxGeometry x="126.25" y="1291" width="120" height="40" as="geometry" />
        </mxCell>
        <mxCell id="HYNNua3p2kZ_3nR679I1-3" value="Yes" style="rounded=0;html=1;jettySize=auto;orthogonalLoop=1;fontSize=11;endArrow=block;endFill=0;endSize=8;strokeWidth=1;shadow=0;labelBackgroundColor=none;edgeStyle=orthogonalEdgeStyle;arcSize=16;" edge="1" parent="1" source="HYNNua3p2kZ_3nR679I1-7">
          <mxGeometry y="20" relative="1" as="geometry">
            <mxPoint as="offset" />
            <mxPoint x="186.25" y="1691" as="targetPoint" />
          </mxGeometry>
        </mxCell>
        <mxCell id="HYNNua3p2kZ_3nR679I1-4" style="edgeStyle=orthogonalEdgeStyle;rounded=0;orthogonalLoop=1;jettySize=auto;html=1;entryX=0;entryY=0.5;entryDx=0;entryDy=0;" edge="1" parent="1" source="HYNNua3p2kZ_3nR679I1-7" target="HYNNua3p2kZ_3nR679I1-10">
          <mxGeometry relative="1" as="geometry" />
        </mxCell>
        <mxCell id="HYNNua3p2kZ_3nR679I1-5" style="edgeStyle=orthogonalEdgeStyle;rounded=0;orthogonalLoop=1;jettySize=auto;html=1;" edge="1" parent="1" source="HYNNua3p2kZ_3nR679I1-7" target="HYNNua3p2kZ_3nR679I1-14">
          <mxGeometry relative="1" as="geometry" />
        </mxCell>
        <mxCell id="HYNNua3p2kZ_3nR679I1-6" style="edgeStyle=orthogonalEdgeStyle;rounded=0;orthogonalLoop=1;jettySize=auto;html=1;entryX=0;entryY=0.5;entryDx=0;entryDy=0;" edge="1" parent="1" source="HYNNua3p2kZ_3nR679I1-7" target="HYNNua3p2kZ_3nR679I1-15">
          <mxGeometry relative="1" as="geometry">
            <Array as="points">
              <mxPoint x="266.25" y="1421" />
              <mxPoint x="266.25" y="1521" />
            </Array>
          </mxGeometry>
        </mxCell>
        <mxCell id="HYNNua3p2kZ_3nR679I1-7" value="先消费&lt;br&gt;handleConsume" style="rhombus;whiteSpace=wrap;html=1;shadow=0;fontFamily=Helvetica;fontSize=12;align=center;strokeWidth=1;spacing=6;spacingTop=-4;arcSize=16;" vertex="1" parent="1">
          <mxGeometry x="136.25" y="1381" width="100" height="80" as="geometry" />
        </mxCell>
        <mxCell id="HYNNua3p2kZ_3nR679I1-8" style="edgeStyle=orthogonalEdgeStyle;rounded=0;orthogonalLoop=1;jettySize=auto;html=1;entryX=0;entryY=0.5;entryDx=0;entryDy=0;" edge="1" parent="1" source="HYNNua3p2kZ_3nR679I1-10" target="HYNNua3p2kZ_3nR679I1-13">
          <mxGeometry relative="1" as="geometry" />
        </mxCell>
        <mxCell id="HYNNua3p2kZ_3nR679I1-9" style="edgeStyle=orthogonalEdgeStyle;rounded=0;orthogonalLoop=1;jettySize=auto;html=1;entryX=0;entryY=0.5;entryDx=0;entryDy=0;" edge="1" parent="1" source="HYNNua3p2kZ_3nR679I1-10" target="HYNNua3p2kZ_3nR679I1-17">
          <mxGeometry relative="1" as="geometry" />
        </mxCell>
        <mxCell id="HYNNua3p2kZ_3nR679I1-10" value="金币支付" style="rounded=1;whiteSpace=wrap;html=1;fontSize=12;glass=0;strokeWidth=1;shadow=0;arcSize=16;" vertex="1" parent="1">
          <mxGeometry x="296.25" y="1311" width="110" height="40" as="geometry" />
        </mxCell>
        <mxCell id="HYNNua3p2kZ_3nR679I1-12" value="strSafeUrl 非空跳转实名认证页面" style="rounded=1;whiteSpace=wrap;html=1;fontSize=12;glass=0;strokeWidth=1;shadow=0;arcSize=16;fillColor=#f8cecc;strokeColor=#b85450;" vertex="1" parent="1">
          <mxGeometry x="360" y="1690" width="210" height="40" as="geometry" />
        </mxCell>
        <mxCell id="HYNNua3p2kZ_3nR679I1-13" value="金币不足需要拉起窗口" style="whiteSpace=wrap;html=1;rounded=1;glass=0;strokeWidth=1;shadow=0;arcSize=16;" vertex="1" parent="1">
          <mxGeometry x="486.25" y="1221" width="155" height="50" as="geometry" />
        </mxCell>
        <mxCell id="HYNNua3p2kZ_3nR679I1-14" value="钻石支付" style="rounded=1;whiteSpace=wrap;html=1;fontSize=12;glass=0;strokeWidth=1;shadow=0;arcSize=16;" vertex="1" parent="1">
          <mxGeometry x="301.25" y="1401" width="110" height="40" as="geometry" />
        </mxCell>
        <mxCell id="HYNNua3p2kZ_3nR679I1-15" value="音贝支付" style="rounded=1;whiteSpace=wrap;html=1;fontSize=12;glass=0;strokeWidth=1;shadow=0;arcSize=16;" vertex="1" parent="1">
          <mxGeometry x="301.25" y="1501" width="110" height="40" as="geometry" />
        </mxCell>
        <mxCell id="HYNNua3p2kZ_3nR679I1-16" style="edgeStyle=orthogonalEdgeStyle;rounded=0;orthogonalLoop=1;jettySize=auto;html=1;entryX=0.5;entryY=0;entryDx=0;entryDy=0;exitX=1;exitY=0.5;exitDx=0;exitDy=0;" edge="1" parent="1" source="HYNNua3p2kZ_3nR679I1-17">
          <mxGeometry relative="1" as="geometry">
            <mxPoint x="186.25" y="1691" as="targetPoint" />
            <Array as="points">
              <mxPoint x="676.25" y="1331" />
              <mxPoint x="676.25" y="1621" />
              <mxPoint x="186.25" y="1621" />
            </Array>
          </mxGeometry>
        </mxCell>
        <mxCell id="HYNNua3p2kZ_3nR679I1-17" value="支付成功的时候需要根据返回的结果显示对应的弹窗" style="whiteSpace=wrap;html=1;rounded=1;glass=0;strokeWidth=1;shadow=0;arcSize=16;" vertex="1" parent="1">
          <mxGeometry x="486.25" y="1306" width="155" height="50" as="geometry" />
        </mxCell>
        <mxCell id="HYNNua3p2kZ_3nR679I1-19" style="edgeStyle=orthogonalEdgeStyle;rounded=0;orthogonalLoop=1;jettySize=auto;html=1;entryX=0;entryY=0.5;entryDx=0;entryDy=0;" edge="1" parent="1" source="HYNNua3p2kZ_3nR679I1-18" target="HYNNua3p2kZ_3nR679I1-12">
          <mxGeometry relative="1" as="geometry" />
        </mxCell>
        <mxCell id="HYNNua3p2kZ_3nR679I1-18" value="返回体" style="whiteSpace=wrap;html=1;rounded=1;glass=0;strokeWidth=1;shadow=0;arcSize=16;" vertex="1" parent="1">
          <mxGeometry x="126.25" y="1691" width="130" height="40" as="geometry" />
        </mxCell>
      </root>
    </mxGraphModel>
  </diagram>
</mxfile>
